<svg id="Layer_1" xmlns="http://www.w3.org/2000/svg" viewBox="3.3 205.1 606.3 381.9"><path fill="#0F88C9" d="M609.6 546.1c0 22.8-18 40.8-40.8 40.8H44.1c-22.8 0-40.8-18-40.8-40.8V245.9c0-22.8 18-40.8 40.8-40.8H568c22.8 0 40.8 18 40.8 40.8v300.3h.8z"/><text transform="translate(52.792 330.041)"><tspan x="0" y="0" fill="#FFF" font-family="'MuseoSansForDell-Bold'" font-size="111.733" letter-spacing="2">Del</tspan><tspan x="182.9" y="0" fill="#FFF" font-family="'MuseoSansForDell-Bold'" font-size="111.733" letter-spacing="6">l</tspan></text><text transform="translate(50.737 438.772)"><tspan x="0" y="0" fill="#FFF" font-family="'MuseoSansForDell'" font-size="111.733" letter-spacing="2">P</tspan><tspan x="69.1" y="0" fill="#FFF" font-family="'MuseoSansForDell'" font-size="111.733">r</tspan><tspan x="108.2" y="0" fill="#FFF" font-family="'MuseoSansForDell'" font-size="111.733" letter-spacing="2">e</tspan><tspan x="172.2" y="0" fill="#FFF" font-family="'MuseoSansForDell'" font-size="111.733" letter-spacing="1">f</tspan><tspan x="209.7" y="0" fill="#FFF" font-family="'MuseoSansForDell'" font-size="111.733">e</tspan><tspan x="271.6" y="0" fill="#FFF" font-family="'MuseoSansForDell'" font-size="111.733" letter-spacing="2">r</tspan><tspan x="313.6" y="0" fill="#FFF" font-family="'MuseoSansForDell'" font-size="111.733" letter-spacing="1">r</tspan><tspan x="354.9" y="0" fill="#FFF" font-family="'MuseoSansForDell'" font-size="111.733" letter-spacing="2">e</tspan><tspan x="418.9" y="0" fill="#FFF" font-family="'MuseoSansForDell'" font-size="111.733" letter-spacing="6">d</tspan></text><text transform="translate(60.055 542.797)"><tspan x="0" y="0" fill="#FFF" font-family="'MuseoSansForDell'" font-size="111.733">A</tspan><tspan x="68.9" y="0" fill="#FFF" font-family="'MuseoSansForDell'" font-size="111.733" letter-spacing="2">cc</tspan><tspan x="196" y="0" fill="#FFF" font-family="'MuseoSansForDell'" font-size="111.733">ou</tspan><tspan x="331.2" y="0" fill="#FFF" font-family="'MuseoSansForDell'" font-size="111.733" letter-spacing="2">n</tspan><tspan x="399.6" y="0" fill="#FFF" font-family="'MuseoSansForDell'" font-size="111.733" letter-spacing="6">t</tspan><tspan x="443.8" y="-42" fill="#FFF" font-family="'MuseoSansForDell'" font-size="42.922" letter-spacing="2">™</tspan></text></svg>