<svg xmlns="http://www.w3.org/2000/svg" xmlns:xlink="http://www.w3.org/1999/xlink" version="1.1" x="0px" y="0px" viewBox="0 0 75 71.3" enable-background="new 0 0 75 71.3" xml:space="preserve"><style>.style0{fill:	#0F88C9;}</style><path d="M59.5 70.8c-0.2 0-0.7 0-1-0.2L37.5 55.2L16.4 70.5c-0.5 0.5-1.2 0.5-1.7 0c-0.5-0.5-0.5-1-0.2-1.7l7.9-24.7 c0 0-21.1-15.3-21.3-15.3c-0.5-0.5-0.7-1-0.5-1.7s1-1.2 1.7-1h25.9L36 1.3c0.2-0.5 0.7-1 1.4-1c0.7 0 1.2 0.5 1.4 1L47 26.2h25.9 c0.7 0 1.2 0.2 1.4 1c0.2 0.5 0 1.2-0.5 1.7L52.8 44.2l8.1 24.9c0.2 0.5 0 1.2-0.5 1.7C60.2 70.8 59.7 70.8 59.5 70.8L59.5 70.8z" class="style0"/></svg>