<?xml version="1.0" encoding="utf-8"?>
<!-- Generator: Adobe Illustrator 17.1.0, SVG Export Plug-In . SVG Version: 6.00 Build 0)  -->
<!DOCTYPE svg PUBLIC "-//W3C//DTD SVG 1.1//EN" "http://www.w3.org/Graphics/SVG/1.1/DTD/svg11.dtd">
<svg version="1.1" id="Layer_1" xmlns="http://www.w3.org/2000/svg" xmlns:xlink="http://www.w3.org/1999/xlink" x="0px" y="0px"
	 viewBox="3.3 205.1 606.3 381.9" enable-background="new 3.3 205.1 606.3 381.9" xml:space="preserve">
<g>
	<path fill="#0F88C9" d="M609.6,546.1c0,22.8-18,40.8-40.8,40.8H44.1c-22.8,0-40.8-18-40.8-40.8V245.9c0-22.8,18-40.8,40.8-40.8
		h523.9c22.8,0,40.8,18,40.8,40.8v300.3H609.6z"/>
</g>
<g>
	<text transform="matrix(1 0 0 1 52.792 330.041)"><tspan x="0" y="0" fill="#FFFFFF" font-family="'MuseoSansForDell-Bold'" font-size="111.7327" letter-spacing="2">Del</tspan><tspan x="182.9" y="0" fill="#FFFFFF" font-family="'MuseoSansForDell-Bold'" font-size="111.7327" letter-spacing="6">l</tspan></text>
	<text transform="matrix(1 0 0 1 50.7368 438.7715)"><tspan x="0" y="0" fill="#FFFFFF" font-family="'MuseoSansForDell'" font-size="111.7327" letter-spacing="2">P</tspan><tspan x="69.1" y="0" fill="#FFFFFF" font-family="'MuseoSansForDell'" font-size="111.7327">r</tspan><tspan x="108.2" y="0" fill="#FFFFFF" font-family="'MuseoSansForDell'" font-size="111.7327" letter-spacing="2">e</tspan><tspan x="172.2" y="0" fill="#FFFFFF" font-family="'MuseoSansForDell'" font-size="111.7327" letter-spacing="1">f</tspan><tspan x="209.7" y="0" fill="#FFFFFF" font-family="'MuseoSansForDell'" font-size="111.7327">e</tspan><tspan x="271.6" y="0" fill="#FFFFFF" font-family="'MuseoSansForDell'" font-size="111.7327" letter-spacing="2">r</tspan><tspan x="313.6" y="0" fill="#FFFFFF" font-family="'MuseoSansForDell'" font-size="111.7327" letter-spacing="1">r</tspan><tspan x="354.9" y="0" fill="#FFFFFF" font-family="'MuseoSansForDell'" font-size="111.7327" letter-spacing="2">e</tspan><tspan x="418.9" y="0" fill="#FFFFFF" font-family="'MuseoSansForDell'" font-size="111.7327" letter-spacing="6">d</tspan></text>
	<text transform="matrix(1 0 0 1 60.0547 542.7969)"><tspan x="0" y="0" fill="#FFFFFF" font-family="'MuseoSansForDell'" font-size="111.7327">A</tspan><tspan x="68.9" y="0" fill="#FFFFFF" font-family="'MuseoSansForDell'" font-size="111.7327" letter-spacing="2">cc</tspan><tspan x="196" y="0" fill="#FFFFFF" font-family="'MuseoSansForDell'" font-size="111.7327">ou</tspan><tspan x="331.2" y="0" fill="#FFFFFF" font-family="'MuseoSansForDell'" font-size="111.7327" letter-spacing="2">n</tspan><tspan x="399.6" y="0" fill="#FFFFFF" font-family="'MuseoSansForDell'" font-size="111.7327" letter-spacing="6">t</tspan><tspan x="443.8" y="-42" fill="#FFFFFF" font-family="'MuseoSansForDell'" font-size="42.9217" letter-spacing="2">™</tspan></text>
</g>
</svg>
